<?xml version="1.0" standalone="no"?>
<!DOCTYPE svg PUBLIC "-//W3C//DTD SVG 20010904//EN"
 "http://www.w3.org/TR/2001/REC-SVG-20010904/DTD/svg10.dtd">
<svg version="1.0" xmlns="http://www.w3.org/2000/svg"
 width="97.000000pt" height="82.000000pt" viewBox="0 0 97.000000 82.000000"
 preserveAspectRatio="xMidYMid meet">
<metadata>
Created by potrace 1.16, written by Peter Selinger 2001-2019
</metadata>
<g transform="translate(0.000000,82.000000) scale(0.100000,-0.100000)"
fill="#000000" stroke="none">
<path d="M612 715 l-33 -55 -179 0 -179 0 -16 -30 c-8 -16 -15 -31 -15 -35 0
-3 77 -5 170 -5 94 0 170 -2 170 -4 0 -3 -9 -21 -21 -40 l-21 -36 -154 0 -154
0 -20 -40 -20 -40 83 0 83 0 39 -40 39 -40 -122 0 -121 0 -16 -30 c-8 -16 -15
-31 -15 -35 0 -3 49 -5 108 -5 60 0 111 -3 115 -6 3 -3 -19 -46 -49 -96 -30
-50 -49 -88 -42 -86 7 3 67 40 133 82 l120 77 77 -83 77 -83 1 132 0 133 116
77 117 78 -116 3 -116 3 -3 130 -3 130 -33 -56z"/>
</g>
</svg>
