<svg width="61" height="60" viewBox="0 0 61 60" fill="none" xmlns="http://www.w3.org/2000/svg">
<path d="M12.4422 58C11.0061 58 9.77712 57.3913 8.7553 56.1738C7.73349 54.9563 7.22171 53.491 7.21997 51.7778V8.22222C7.21997 6.51111 7.73175 5.04681 8.7553 3.82933C9.77886 2.61185 11.0078 2.00207 12.4422 2H25.7262H39.0103C39.7065 2 40.3706 2.15556 41.0025 2.46667C41.6344 2.77778 42.1888 3.21852 42.6658 3.78889L52.7186 15.7667C53.1973 16.337 53.5672 16.9987 53.8283 17.7516C54.0894 18.5044 54.22 19.2947 54.22 20.1222V51.7778C54.22 53.4889 53.7091 54.9542 52.6872 56.1738C51.6654 57.3933 50.4356 58.0021 48.9977 58H12.4422ZM12.4422 51.7778H48.9977V20.6667H41.1644C40.4246 20.6667 39.8049 20.368 39.3053 19.7707C38.8057 19.1733 38.555 18.435 38.5533 17.5556V8.22222H12.4422V51.7778ZM41.1644 45.5556C41.9042 45.5556 42.5248 45.2569 43.0261 44.6596C43.5275 44.0622 43.7773 43.3238 43.7755 42.4444C43.7738 41.565 43.5231 40.8267 43.0235 40.2293C42.5239 39.632 41.9042 39.3333 41.1644 39.3333H20.2755C19.5357 39.3333 18.916 39.632 18.4164 40.2293C17.9168 40.8267 17.6662 41.565 17.6644 42.4444C17.6627 43.3238 17.9133 44.0633 18.4164 44.6627C18.9195 45.2621 19.5392 45.5597 20.2755 45.5556H41.1644ZM28.1089 20.6667C28.8487 20.6667 29.4692 20.368 29.9706 19.7707C30.4719 19.1733 30.7217 18.435 30.72 17.5556C30.7182 16.6761 30.4676 15.9378 29.968 15.3404C29.4684 14.7431 28.8487 14.4444 28.1089 14.4444H20.2755C19.5357 14.4444 18.916 14.7431 18.4164 15.3404C17.9168 15.9378 17.6662 16.6761 17.6644 17.5556C17.6627 18.435 17.9133 19.1744 18.4164 19.7738C18.9195 20.3732 19.5392 20.6708 20.2755 20.6667H28.1089ZM41.1644 33.1111C41.9042 33.1111 42.5248 32.8124 43.0261 32.2151C43.5275 31.6178 43.7773 30.8794 43.7755 30C43.7738 29.1206 43.5231 28.3822 43.0235 27.7849C42.5239 27.1876 41.9042 26.8889 41.1644 26.8889H20.2755C19.5357 26.8889 18.916 27.1876 18.4164 27.7849C17.9168 28.3822 17.6662 29.1206 17.6644 30C17.6627 30.8794 17.9133 31.6188 18.4164 32.2182C18.9195 32.8176 19.5392 33.1153 20.2755 33.1111H41.1644Z" fill="#183E98"/>
</svg>
