<svg width="61" height="60" viewBox="0 0 61 60" fill="none" xmlns="http://www.w3.org/2000/svg">
<g clip-path="url(#clip0_145_439)">
<path fill-rule="evenodd" clip-rule="evenodd" d="M10.5901 7.00018C10.5901 5.89562 11.4855 5.00018 12.5901 5.00018H48.59C49.6946 5.00018 50.59 5.89561 50.59 7.00018V21.6716C50.59 22.202 50.3793 22.7107 50.0043 23.0858L49.0045 24.0856C47.7446 25.3456 45.5903 24.4533 45.5903 22.6715V11.9999C45.5903 10.8953 44.6948 9.99986 43.5903 9.99986H17.5902C16.4857 9.99986 15.5903 10.8952 15.5902 11.9997L15.588 48.0001C15.588 49.1047 16.4834 50.0002 17.588 50.0002H43.5903C44.6948 50.0002 45.5903 49.1048 45.5903 48.0002V43.3286C45.5903 42.7982 45.801 42.2895 46.176 41.9144L47.1757 40.9146C48.4356 39.6546 50.59 40.5469 50.59 42.3287V53.0003C50.59 54.1049 49.6946 55.0003 48.59 55.0003H12.5901C11.4855 55.0003 10.5901 54.1049 10.5901 53.0003V7.00018Z" fill="#183E98"/>
<path fill-rule="evenodd" clip-rule="evenodd" d="M55.4729 24.629L55.962 25.1181C57.2034 26.3596 57.2039 28.3848 55.9629 29.6267L55.5897 30L50.5914 25.0013L50.9622 24.63C52.2042 23.3871 54.2304 23.3866 55.4729 24.629ZM33.0898 47.5003V42.5002L48.6848 26.9054L53.6831 31.9041L38.0896 47.4998C36.423 47.4998 34.7564 47.4998 33.0894 47.4998L33.0898 47.5003Z" fill="#183E98"/>
<path fill-rule="evenodd" clip-rule="evenodd" d="M20.5903 15H40.5903V20.0002H20.5903V15Z" fill="#183E98"/>
<path fill-rule="evenodd" clip-rule="evenodd" d="M20.5903 25.0003H40.5903V30H20.5903V25.0003Z" fill="#183E98"/>
<path fill-rule="evenodd" clip-rule="evenodd" d="M20.5903 35.0001H35.5905L30.5903 39.9998H20.5903V35.0001Z" fill="#183E98"/>
</g>
<defs>
<clipPath id="clip0_145_439">
<rect width="60" height="60" fill="white" transform="translate(0.590088)"/>
</clipPath>
</defs>
</svg>
