<svg width="61" height="60" viewBox="0 0 61 60" fill="none" xmlns="http://www.w3.org/2000/svg">
<g clip-path="url(#clip0_145_434)">
<path fill-rule="evenodd" clip-rule="evenodd" d="M11.312 54.465H31.2734V50.834H11.3029V7.26199H47.6129V32.679H51.2439V7.25472C51.242 6.29424 50.8596 5.37364 50.1804 4.69447C49.5013 4.0153 48.5807 3.6329 47.6202 3.63098H11.2956C10.3351 3.6329 9.41453 4.0153 8.73536 4.69447C8.0562 5.37364 7.67379 6.29424 7.67188 7.25472V50.825C7.67284 51.7901 8.05665 52.7154 8.73909 53.3978C9.42153 54.0803 10.3468 54.4641 11.312 54.465ZM39.2798 43.572L43.9819 48.2742L54.1306 38.1255L56.6904 40.6854L43.9819 53.3939L36.7199 46.1319L39.2798 43.572ZM31.2734 41.7565H27.6424V45.3875H31.2734V41.7565ZM20.3804 41.7565H16.7494V45.3875H20.3804V41.7565ZM42.1664 32.679H38.5354V36.31H42.1664V32.679ZM31.2734 32.679H27.6424V36.31H31.2734V32.679ZM20.3804 32.679H16.7494V36.31H20.3804V32.679ZM42.1664 23.6015H38.5354V27.2325H42.1664V23.6015ZM31.2734 23.6015H27.6424V27.2325H31.2734V23.6015ZM20.3804 23.6015H16.7494V27.2325H20.3804V23.6015ZM42.1664 12.7085H16.7494V18.155H42.1664V12.7085Z" fill="#183E98"/>
</g>
<defs>
<clipPath id="clip0_145_434">
<rect width="60" height="60.0008" fill="white" transform="translate(0.409912)"/>
</clipPath>
</defs>
</svg>
