<svg width="749" height="562" viewBox="0 0 749 562" fill="none" xmlns="http://www.w3.org/2000/svg">
<path d="M748.639 560.886V500.734C748.639 499.898 747.734 499.358 746.985 499.776C734.084 507.228 727.469 518.353 722.42 522.009C716.291 526.466 709.345 530.261 687.007 531.532L680.931 508.342C680.635 507.228 680.374 506.427 667.09 509.108L664.583 499.776C664.322 498.836 664.096 498.053 655.443 499.619L649.941 479.267C650.376 477.056 653.562 460.812 656.975 439.885C660.788 416.486 651.055 383.581 644.979 373.256C639.983 364.551 633.384 343.468 630.581 333.84C630.459 333.405 630.024 333.109 629.676 333.056C627.308 332.726 623.46 334.014 620.292 336.695L620.083 319.302L681.854 318.693C682.446 318.693 682.933 318.206 682.933 317.596V136.409C702.589 135.817 718.398 119.695 718.398 99.8995C718.398 79.7386 701.997 63.3208 681.837 63.3208C661.676 63.3208 645.258 79.7212 645.258 99.8995C645.258 119.695 661.084 135.834 680.74 136.409V316.482L620.048 317.091L619.334 256.312C619.247 250.027 614.076 244.961 607.774 244.961C607.739 244.961 607.722 244.961 607.687 244.961L516.44 246.006C510.103 246.11 505.036 251.333 505.123 257.653C505.211 281.54 505.698 308.473 505.82 320.103C500.771 318.345 485.607 313.696 482.264 319.912C480.053 324.038 480.209 328.861 482.682 333.178C486.512 339.812 495.026 343.886 506.081 344.477L506.151 350.467C502.111 349.979 489.646 349.248 487.452 358.423C486.025 364.569 489.872 374.597 494.573 381.787C492.936 383.128 489.228 386.54 487.957 390.719C486.477 395.576 490.412 404.038 495.165 410.201C493.215 412.656 487.383 421.187 491.944 430.188C496.192 438.579 501.746 444.777 507.247 447.372L507.317 453.691C507.404 459.733 512.244 465.008 518.965 465.008L535.487 464.817C548.91 493.178 560.644 502.144 568.166 504.634C572.118 505.939 575.025 505.539 576.54 505.104L581.171 518.492C572.501 521.382 572.675 522.287 572.919 523.158L575.408 532.455C562.751 536.407 562.908 537.191 563.204 538.34L566.355 550.527C536.531 548.664 501.38 546.122 471.748 559.893C471.278 560.102 471.017 560.625 471.139 561.13C471.243 561.634 471.696 562 472.218 562C569.611 562 638.868 562 747.525 562C748.152 561.983 748.639 561.495 748.639 560.886ZM647.486 99.8995C647.486 80.9399 662.912 65.5319 681.871 65.5319C700.831 65.5319 716.239 80.9573 716.239 99.8995C716.239 118.842 700.814 134.267 681.871 134.267C662.912 134.267 647.486 118.842 647.486 99.8995ZM484.632 332.099C482.542 328.46 482.403 324.404 484.249 320.974C486.651 316.517 501.015 320.695 505.855 322.436L506.081 342.319C495.844 341.762 488.062 338.053 484.632 332.099ZM636.048 357.883C631.469 358.44 629.589 357.709 628.091 351.807C626.542 345.661 628.074 340.177 629.293 337.165C631.765 345.383 634.185 352.678 636.048 357.883ZM615.974 341.64C613.293 348.377 611.708 356.282 611.865 364.569L571.352 330.793L617.75 305.966C617.75 306.401 618.15 340.125 618.133 338.819C617.61 339.394 616.374 340.908 615.974 341.64ZM507.926 308.491C507.926 308.038 507.735 278.772 507.752 280.6L548.631 314.706C549.049 315.054 549.781 314.932 550.129 314.497L617.297 278.58V288.713L610.124 292.543C609.584 292.822 609.393 293.501 609.671 294.023C609.95 294.563 610.629 294.754 611.151 294.476L617.28 291.202V303.703L568.862 329.609C568.549 329.783 568.322 330.097 568.288 330.462C568.253 330.828 568.392 331.176 568.671 331.42L611.917 367.476C611.917 367.511 612.283 371.15 612.3 371.341C613.171 378.149 615.208 384.538 617.106 388.403C616.618 391.52 616.531 395.942 616.548 399.076L507.926 308.491ZM589.058 252.151C589.093 255.337 586.533 257.966 583.347 258.001L540.431 258.506C540.414 258.506 540.379 258.506 540.362 258.506C537.193 258.506 534.616 255.964 534.581 252.796L534.529 248.112L589.006 247.468L589.058 252.151ZM516.51 248.217L532.336 248.043L532.388 252.83C532.44 257.253 536.026 260.717 540.362 260.717C540.396 260.717 540.431 260.717 540.466 260.717L583.382 260.212C587.769 260.16 591.321 256.574 591.269 252.151L591.217 247.381L607.774 247.189C607.791 247.189 607.826 247.189 607.843 247.189C612.927 247.189 617.123 251.298 617.193 256.382L617.419 276.073L549.363 312.46L507.596 277.622L507.369 257.67C507.282 252.517 511.391 248.286 516.51 248.217ZM489.628 358.945C491.161 352.625 499.796 351.929 506.185 352.713L506.255 359.537C506.255 359.781 506.394 360.077 506.551 360.268C514.891 370.471 518.355 380.064 515.796 385.948C514.316 389.361 510.555 390.876 507.892 390.58C505.646 390.318 502.251 388.543 496.993 381.439C491.631 373.622 488.462 363.959 489.628 358.945ZM490.098 391.363C491.161 387.916 494.347 384.904 495.879 383.598L495.913 383.633L496.018 383.755C496.035 383.772 496.035 383.79 496.053 383.807C499.517 388.56 501.798 389.883 502.529 390.527C503.017 390.806 505.35 392.826 508.31 392.826C508.344 392.826 508.397 392.826 508.431 392.826C508.449 392.826 508.466 392.826 508.484 392.826C515.639 398.414 519.173 407.084 518.616 412.377C518.407 414.344 517.641 416.19 515.831 417.043C512.471 418.645 509.633 418.732 506.412 417.304C497.742 413.282 488.27 397.387 490.098 391.363ZM493.929 429.195C490.22 421.883 494.695 414.588 496.61 411.977C499.395 415.406 502.129 417.687 505.071 419.08C507.108 420.107 506.22 419.55 507.456 420.02C512.331 424.825 518.442 434.819 518.512 441.435C518.547 444.342 517.467 446.188 514.664 446.606C514.647 446.606 514.647 446.606 514.629 446.606C512.679 446.867 510.73 446.571 508.78 445.665C503.522 443.454 498.107 437.448 493.929 429.195ZM518.982 462.797C513.916 462.762 509.633 458.775 509.563 453.657L509.493 448.294C509.667 448.347 509.859 448.364 510.033 448.399C515.552 449.913 520.601 448.085 520.671 441.748C520.758 435.028 515.256 425.609 510.921 420.525C513.097 420.49 515.187 419.794 516.771 419.045C519.034 417.966 520.462 415.685 520.775 412.621C521.315 407.328 518.198 398.536 511.374 392.39C511.461 392.373 512.244 392.042 512.262 392.025C515.5 390.771 517.868 388.073 518.582 384.155C519.765 377.592 516.196 368.695 508.466 359.172L507.926 311.363L584.357 375.102H547.831C547.221 375.102 546.734 375.589 546.734 376.199V409.975L535.539 431.163C535.052 432.068 535.992 433.113 536.984 432.66L547.831 427.559L558.642 432.695C559.582 433.147 560.575 432.138 560.087 431.198L548.927 409.975V377.278H586.986L616.566 401.948C616.723 410.253 617.419 418.784 617.61 421.1C606.747 430.083 604.814 445.282 604.762 454.719C604.744 457.034 604.849 459.524 605.093 461.77C599.852 461.857 529.463 462.675 518.982 462.797ZM578.298 503.31C578.194 503.014 577.968 502.771 577.654 502.649C577.532 502.597 577.393 502.579 577.254 502.579C577.08 502.579 576.906 502.614 576.731 502.701C576.714 502.718 573.789 504.146 568.897 502.527C561.863 500.194 550.843 491.715 537.942 464.764L605.389 463.981C606.068 472.982 608.209 479.789 612.179 485.204C612.544 485.709 613.241 485.796 613.711 485.448C614.198 485.082 614.303 484.403 613.954 483.916C610.089 478.64 608.017 471.92 607.478 462.797C607.478 462.78 607.46 462.78 607.46 462.762C607.46 462.745 607.478 462.745 607.478 462.727C607.443 462.449 603.735 434.958 619.508 422.475C619.804 422.249 619.961 421.883 619.926 421.517C619.926 421.517 619.926 421.465 619.926 421.448C617.767 395.994 619.386 387.985 619.386 388.438C619.195 386.802 608.331 367.111 617.959 342.632C618.394 342.179 621.772 336.538 627.656 335.494C626.263 338.541 624.122 344.913 626.002 352.347C627.604 358.684 630.25 360.234 633.941 360.234C634.829 360.234 635.839 360.094 636.849 359.955C638.555 364.569 640.923 370.523 643.116 374.336C649.28 384.834 658.42 417.565 654.833 439.52C651.195 461.892 647.8 478.919 647.765 479.093C647.73 479.25 647.747 479.424 647.782 479.598L653.301 500.037C635.647 503.45 599.452 512.66 583.312 517.813L578.298 503.31ZM571.038 559.789C570.916 559.336 565.154 536.964 565.519 538.357C566.32 537.904 568.897 536.773 577.097 534.231C600.479 527.023 669.11 509.491 678.877 509.491C678.912 509.491 678.929 509.491 678.964 509.491L692.143 559.789H571.038Z" fill="#183E98"/>
<path d="M555.038 253.893L566.895 253.753C567.504 253.753 567.991 253.248 567.974 252.639C567.957 252.03 567.574 251.612 566.86 251.56L555.021 251.699C554.411 251.699 553.924 252.204 553.941 252.813C553.959 253.405 554.446 253.893 555.038 253.893Z" fill="#183E98"/>
<path d="M504.758 385.409C507.892 387.794 511.06 386.21 512.871 382.571C514.699 378.897 508.936 373.796 507.822 372.804C505.263 370.662 503.452 370.819 502.373 371.324C498.995 372.908 497.968 380.29 504.758 385.409ZM503.835 373.187C504.514 373.187 505.402 373.622 506.394 374.458C508.675 376.408 511.67 380.029 510.904 381.578C509.772 383.859 508.135 385.2 506.081 383.65C503.539 381.735 501.955 379.071 501.937 376.686C501.92 375.311 502.46 373.187 503.835 373.187Z" fill="#183E98"/>
<path d="M506.081 413.874C509.302 416.312 513.028 415.824 514.856 412.133C516.092 409.644 513.933 405.9 509.389 401.704C506.795 399.528 504.949 399.668 503.853 400.207C501.85 401.147 501.154 403.759 501.171 405.709C501.189 408.721 502.808 411.402 506.081 413.874ZM505.35 402.07C506.046 402.07 506.952 402.523 507.979 403.376C510.451 405.552 513.707 409.539 512.906 411.158C511.705 413.578 509.563 413.752 507.404 412.133C504.671 410.061 503.383 408.024 503.365 405.691C503.348 404.264 503.905 402.07 505.35 402.07Z" fill="#183E98"/>
<path d="M515.326 441.417C516.179 439.711 515.361 436.873 510.816 432.695C508.623 430.849 507.038 430.988 506.098 431.441C504.375 432.242 503.783 434.453 503.8 436.107C503.818 438.631 505.158 440.86 507.874 442.914C510.59 444.969 513.776 444.533 515.326 441.417ZM505.994 436.09C505.976 434.853 506.429 433.722 507.038 433.426C507.735 433.112 508.814 433.878 509.406 434.366C511.443 436.177 513.95 439.276 513.376 440.442C512.453 442.305 510.851 442.392 509.215 441.156C507.021 439.519 506.011 437.9 505.994 436.09Z" fill="#183E98"/>
<path d="M564.718 319.355L572.466 315.211C573.006 314.932 573.197 314.253 572.919 313.731C572.623 313.191 571.961 312.982 571.439 313.278L563.691 317.422C563.151 317.701 562.96 318.38 563.239 318.902C563.517 319.424 564.196 319.633 564.718 319.355Z" fill="#183E98"/>
<path d="M579.691 311.189C580.214 311.189 579.883 311.172 587.961 306.923C588.501 306.645 588.692 305.966 588.414 305.444C588.118 304.904 587.474 304.712 586.934 304.991L579.186 309.135C578.177 309.657 578.542 311.189 579.691 311.189Z" fill="#183E98"/>
<path d="M595.691 302.78L603.439 298.637C603.978 298.358 604.17 297.679 603.891 297.157C603.595 296.617 602.934 296.408 602.411 296.704L594.664 300.848C594.124 301.126 593.933 301.805 594.211 302.328C594.49 302.867 595.169 303.059 595.691 302.78Z" fill="#183E98"/>
<path d="M550.216 326.963C550.738 326.963 550.634 326.841 556.971 323.498C557.511 323.22 557.702 322.541 557.424 322.019C557.128 321.479 556.484 321.287 555.944 321.566L549.711 324.909C548.719 325.431 549.067 326.963 550.216 326.963Z" fill="#183E98"/>
<path d="M591.826 364.36C591.356 363.977 590.677 364.029 590.277 364.499C589.893 364.969 589.946 365.648 590.416 366.049C597.432 371.794 597.136 371.933 597.867 371.933C598.895 371.933 599.347 370.645 598.564 370.001L591.826 364.36Z" fill="#183E98"/>
<path d="M612.057 381.231L605.319 375.607C604.849 375.224 604.17 375.294 603.769 375.746C603.386 376.216 603.439 376.895 603.909 377.296C610.925 383.024 610.629 383.18 611.36 383.18C612.37 383.18 612.84 381.892 612.057 381.231Z" fill="#183E98"/>
<path d="M578.333 353.113C577.88 352.73 577.184 352.782 576.784 353.252C576.401 353.722 576.453 354.401 576.923 354.801L583.661 360.425C584.131 360.808 584.81 360.756 585.21 360.286C585.593 359.816 585.541 359.137 585.071 358.736L578.333 353.113Z" fill="#183E98"/>
<path d="M564.84 341.866C564.37 341.483 563.691 341.535 563.291 342.005C562.908 342.475 562.96 343.154 563.43 343.554L570.168 349.178C570.638 349.561 571.317 349.509 571.717 349.039C572.1 348.569 572.048 347.89 571.578 347.489L564.84 341.866Z" fill="#183E98"/>
<path d="M551.347 330.619C550.877 330.236 550.198 330.288 549.798 330.758C549.415 331.228 549.467 331.907 549.937 332.308L556.675 337.931C557.145 338.314 557.824 338.262 558.224 337.792C558.607 337.322 558.555 336.643 558.085 336.243L551.347 330.619Z" fill="#183E98"/>
<path d="M537.872 319.372C537.402 318.989 536.723 319.041 536.322 319.511C535.939 319.981 535.992 320.66 536.462 321.061C543.478 326.789 543.182 326.945 543.913 326.945C544.94 326.945 545.393 325.657 544.61 325.013L537.872 319.372Z" fill="#183E98"/>
<path d="M514.821 300.151C514.368 299.768 513.672 299.82 513.271 300.291C512.888 300.761 512.941 301.44 513.411 301.84C516.144 304.016 516.231 304.434 516.928 304.434C517.241 304.434 517.554 304.295 517.781 304.034C518.164 303.564 518.111 302.885 517.641 302.484L514.821 300.151Z" fill="#183E98"/>
<path d="M524.379 308.125C523.909 307.742 523.23 307.794 522.829 308.264C522.446 308.735 522.499 309.414 522.969 309.814C529.985 315.559 529.689 315.699 530.42 315.699C530.734 315.699 531.047 315.559 531.273 315.298C531.656 314.828 531.604 314.149 531.134 313.749L524.379 308.125Z" fill="#183E98"/>
<path d="M581.815 454.736C583.248 454.736 584.409 453.575 584.409 452.142C584.409 450.709 583.248 449.548 581.815 449.548C580.383 449.548 579.221 450.709 579.221 452.142C579.221 453.575 580.383 454.736 581.815 454.736Z" fill="#183E98"/>
<path d="M563.36 454.736C564.806 454.736 565.955 453.57 565.955 452.142C565.955 450.714 564.806 449.548 563.36 449.548C561.933 449.548 560.766 450.714 560.766 452.142C560.784 453.57 561.95 454.736 563.36 454.736Z" fill="#183E98"/>
<path d="M544.923 454.736C546.356 454.736 547.517 453.575 547.517 452.142C547.517 450.709 546.356 449.548 544.923 449.548C543.491 449.548 542.329 450.709 542.329 452.142C542.329 453.575 543.491 454.736 544.923 454.736Z" fill="#183E98"/>
<path d="M29.4779 285.805H97.9869C98.5963 285.805 99.0837 285.318 99.0837 284.708V230.458C99.0837 229.849 98.5963 229.361 97.9869 229.361H63.3059C60.2417 229.361 57.3168 230.772 55.5061 233.122C45.0948 246.684 36.2505 263.433 28.4507 284.325C28.1896 285.039 28.7119 285.805 29.4779 285.805ZM57.2471 234.463C58.6573 232.634 60.9207 231.555 63.3059 231.555H96.8727V283.611H31.0622C38.6531 263.625 47.2189 247.538 57.2471 234.463Z" fill="#183E98"/>
<path d="M108.05 285.805H130.109C130.718 285.805 131.205 285.318 131.205 284.708V230.458C131.205 229.849 130.718 229.361 130.109 229.361H108.05C107.44 229.361 106.953 229.849 106.953 230.458V284.708C106.953 285.318 107.44 285.805 108.05 285.805ZM109.147 231.555H129.012V283.611H109.147V231.555Z" fill="#183E98"/>
<path d="M341.433 360.721C336.106 360.721 331.771 365.056 331.771 370.384C331.771 375.711 336.106 380.046 341.433 380.046C346.761 380.046 351.096 375.711 351.096 370.384C351.113 365.056 346.761 360.721 341.433 360.721Z" fill="#183E98"/>
<path d="M83.606 360.721C78.2785 360.721 73.9434 365.056 73.9434 370.384C73.9434 375.711 78.2785 380.046 83.606 380.046C88.9335 380.046 93.2686 375.711 93.2686 370.384C93.2686 365.056 88.9335 360.721 83.606 360.721Z" fill="#183E98"/>
<path d="M3.88496 353.2H7.50627V367.163C7.50627 371.69 11.2146 375.381 15.7587 375.381H52.5986C54.3396 386.558 61.9304 395.646 72.0457 399.65H64.7161C64.1067 399.65 63.6192 400.138 63.6192 400.747C63.6192 401.357 64.1067 401.844 64.7161 401.844H73.4908C74.1001 401.844 74.5876 401.357 74.5876 400.747C74.5876 400.643 74.5006 400.59 74.4832 400.486C80.2111 402.21 84.9119 401.844 91.0576 401.844C91.667 401.844 92.1545 401.357 92.1545 400.747C92.1545 400.712 92.1197 400.712 92.1197 400.678C103.697 397.404 112.698 387.655 114.631 375.381C144.246 375.381 280.776 375.381 310.408 375.381C312.149 386.558 319.74 395.646 329.855 399.65H328.149C327.54 399.65 327.052 400.138 327.052 400.747C327.052 401.357 327.54 401.844 328.149 401.844H336.924C337.168 401.844 337.359 401.722 337.533 401.583C340.371 401.931 342.338 401.931 345.142 401.6C345.316 401.722 345.49 401.844 345.716 401.844H354.491C355.1 401.844 355.588 401.357 355.588 400.747C355.588 400.138 355.1 399.65 354.491 399.65H352.959C363.074 395.646 370.7 386.558 372.458 375.381H446.173C448.401 375.381 450.212 373.57 450.212 371.341V355.22C450.212 352.991 448.401 351.18 446.173 351.18H442.395V181.292C442.395 177.201 439.069 173.875 434.978 173.875H275.501V166.18C275.501 165.571 275.013 165.083 274.404 165.083C273.795 165.083 273.307 165.571 273.307 166.18V173.875H146.892C142.801 173.875 139.475 177.201 139.475 181.292V218.881H58.135C55.2449 218.881 52.5464 220.169 50.7009 222.397C32.9251 243.742 18.9447 273.74 7.97635 314.132C7.66296 315.385 7.50627 316.586 7.50627 317.683V327.712H3.88496C1.74351 327.712 0.0199048 329.453 0.0199048 331.577V349.335C0.00249468 351.459 1.74351 353.2 3.88496 353.2ZM83.8672 399.65H83.3101C66.962 399.494 54.3048 386.07 54.3048 370.419C54.3048 354.262 67.4495 341.135 83.5887 341.135C99.7453 341.135 112.873 354.279 112.873 370.419C112.89 386.419 99.9194 399.494 83.8672 399.65ZM141.686 373.169V353.374H314.952C312.027 357.883 309.938 364.186 309.938 370.419C309.938 371.394 309.99 372.299 310.077 373.187H141.686V373.169ZM341.433 399.65C325.259 399.65 312.149 386.471 312.149 370.401C312.149 353.809 325.764 341.117 341.433 341.117C359.174 341.117 372.876 356.978 370.473 374.11C370.473 374.11 370.473 374.11 370.473 374.127C368.628 388.682 356.145 399.65 341.433 399.65ZM448.036 355.22V371.341C448.036 372.351 447.2 373.187 446.19 373.187H372.771C373.433 366.153 371.396 358.789 367.879 353.392C380.066 353.392 428.258 353.392 446.173 353.392C447.217 353.374 448.036 354.21 448.036 355.22ZM141.686 181.292C141.686 178.367 143.985 176.069 146.909 176.069H434.995C437.92 176.069 440.218 178.367 440.218 181.292V351.18H366.33C360.306 343.381 350.8 338.924 341.416 338.924C331.701 338.924 322.265 343.729 316.502 351.18H141.686C141.686 287.181 141.686 243.76 141.686 181.292ZM10.1004 314.671C20.9817 274.628 34.8228 244.891 52.3897 223.79C53.8173 222.067 55.9065 221.074 58.135 221.074H139.493C139.493 259.76 139.493 334.345 139.493 373.169H114.944C115.031 372.264 115.066 371.341 115.066 370.401C115.066 353.043 100.947 338.924 83.5887 338.924C64.5594 338.924 50.3527 355.725 52.2504 373.169H15.7587C12.4159 373.169 9.69996 370.471 9.69996 367.163C9.75219 282.254 9.69996 372.804 9.69996 317.683C9.69996 316.761 9.83924 315.716 10.1004 314.671ZM2.19618 331.577C2.19618 330.654 2.94481 329.905 3.86755 329.905H7.48886V351.006H3.86755C2.94481 351.006 2.19618 350.258 2.19618 349.335V331.577Z" fill="#183E98"/>
<path d="M275.536 78.3632C275.536 77.7538 275.048 77.2664 274.439 77.2664C273.83 77.2664 273.342 77.7538 273.342 78.3632V87.1379C273.342 87.7473 273.83 88.2348 274.439 88.2348C275.048 88.2348 275.536 87.7473 275.536 87.1379V78.3632Z" fill="#183E98"/>
<path d="M275.536 60.7963C275.536 60.187 275.048 59.6995 274.439 59.6995C273.83 59.6995 273.342 60.187 273.342 60.7963V69.571C273.342 70.1804 273.83 70.6679 274.439 70.6679C275.048 70.6679 275.536 70.1804 275.536 69.571V60.7963Z" fill="#183E98"/>
<path d="M418.438 45.6146C418.438 45.0053 417.951 44.5178 417.341 44.5178H408.567C407.957 44.5178 407.47 45.0053 407.47 45.6146C407.47 46.224 407.957 46.7115 408.567 46.7115H417.341C417.933 46.7289 418.438 46.224 418.438 45.6146Z" fill="#183E98"/>
<path d="M275.536 46.7288H276.824C277.433 46.7288 277.921 46.2413 277.921 45.632C277.921 45.0226 277.433 44.5352 276.824 44.5352H274.439C273.83 44.5352 273.342 45.0226 273.342 45.632V52.0215C273.342 52.6309 273.83 53.1184 274.439 53.1184C275.048 53.1184 275.536 52.6309 275.536 52.0215V46.7288Z" fill="#183E98"/>
<path d="M461.25 44.5178C460.641 44.5178 460.153 45.0053 460.153 45.6146C460.153 46.224 460.641 46.7115 461.25 46.7115H470.025C470.634 46.7115 471.121 46.224 471.121 45.6146C471.121 45.0053 470.634 44.5178 470.025 44.5178H461.25Z" fill="#183E98"/>
<path d="M435.988 45.6146C435.988 45.0053 435.5 44.5178 434.891 44.5178H426.116C425.507 44.5178 425.019 45.0053 425.019 45.6146C425.019 46.224 425.507 46.7115 426.116 46.7115H434.891C435.5 46.7289 435.988 46.224 435.988 45.6146Z" fill="#183E98"/>
<path d="M443.683 46.7288H452.458C453.067 46.7288 453.554 46.2413 453.554 45.632C453.554 45.0226 453.067 44.5352 452.458 44.5352H443.683C443.074 44.5352 442.586 45.0226 442.586 45.632C442.586 46.2239 443.074 46.7288 443.683 46.7288Z" fill="#183E98"/>
<path d="M275.536 113.479C275.536 112.87 275.048 112.383 274.439 112.383C273.83 112.383 273.342 112.87 273.342 113.479V122.254C273.342 122.863 273.83 123.351 274.439 123.351C275.048 123.351 275.536 122.863 275.536 122.254V113.479Z" fill="#183E98"/>
<path d="M390.982 44.5178C390.373 44.5178 389.886 45.0053 389.886 45.6146C389.886 46.224 390.373 46.7115 390.982 46.7115H399.757C400.367 46.7115 400.854 46.224 400.854 45.6146C400.854 45.0053 400.367 44.5178 399.757 44.5178H390.982Z" fill="#183E98"/>
<path d="M275.536 95.9125C275.536 95.3032 275.048 94.8157 274.439 94.8157C273.83 94.8157 273.342 95.3032 273.342 95.9125V104.687C273.342 105.297 273.83 105.784 274.439 105.784C275.048 105.784 275.536 105.297 275.536 104.687V95.9125Z" fill="#183E98"/>
<path d="M355.866 44.5178C355.257 44.5178 354.769 45.0053 354.769 45.6146C354.769 46.224 355.257 46.7115 355.866 46.7115H364.641C365.25 46.7115 365.738 46.224 365.738 45.6146C365.738 45.0053 365.25 44.5178 364.641 44.5178H355.866Z" fill="#183E98"/>
<path d="M320.733 44.5178C320.123 44.5178 319.636 45.0053 319.636 45.6146C319.636 46.224 320.123 46.7115 320.733 46.7115H329.507C330.117 46.7115 330.604 46.224 330.604 45.6146C330.604 45.0053 330.117 44.5178 329.507 44.5178H320.733Z" fill="#183E98"/>
<path d="M338.299 44.5178C337.69 44.5178 337.202 45.0053 337.202 45.6146C337.202 46.224 337.69 46.7115 338.299 46.7115H347.074C347.683 46.7115 348.171 46.224 348.171 45.6146C348.171 45.0053 347.683 44.5178 347.074 44.5178H338.299Z" fill="#183E98"/>
<path d="M373.416 44.5178C372.806 44.5178 372.319 45.0053 372.319 45.6146C372.319 46.224 372.806 46.7115 373.416 46.7115H382.19C382.8 46.7115 383.287 46.224 383.287 45.6146C383.287 45.0053 382.8 44.5178 382.19 44.5178H373.416Z" fill="#183E98"/>
<path d="M274.439 147.516C273.83 147.516 273.342 148.004 273.342 148.613V157.388C273.342 157.997 273.83 158.485 274.439 158.485C275.048 158.485 275.536 157.997 275.536 157.388V148.613C275.536 148.004 275.031 147.516 274.439 147.516Z" fill="#183E98"/>
<path d="M275.536 131.046C275.536 130.437 275.048 129.949 274.439 129.949C273.83 129.949 273.342 130.437 273.342 131.046V139.821C273.342 140.43 273.83 140.918 274.439 140.918C275.048 140.918 275.536 140.43 275.536 139.821V131.046Z" fill="#183E98"/>
<path d="M285.599 44.5178C284.989 44.5178 284.502 45.0053 284.502 45.6146C284.502 46.224 284.989 46.7115 285.599 46.7115H294.373C294.983 46.7115 295.47 46.224 295.47 45.6146C295.47 45.0053 294.983 44.5178 294.373 44.5178H285.599Z" fill="#183E98"/>
<path d="M303.166 44.5178C302.556 44.5178 302.069 45.0053 302.069 45.6146C302.069 46.224 302.556 46.7115 303.166 46.7115H311.94C312.55 46.7115 313.037 46.224 313.037 45.6146C313.037 45.0053 312.55 44.5178 311.94 44.5178H303.166Z" fill="#183E98"/>
<path d="M520.775 8.96631C500.928 8.96631 484.736 24.827 484.179 44.5179H478.817C478.207 44.5179 477.72 45.0053 477.72 45.6147C477.72 46.2241 478.207 46.7115 478.817 46.7115H484.179C484.789 66.4198 500.945 82.2631 520.775 82.2631C540.954 82.2631 557.371 65.7931 557.371 45.5625C557.371 25.3841 540.954 8.96631 520.775 8.96631ZM520.775 80.0868C501.781 80.0868 486.321 64.6092 486.321 45.5799C486.321 26.6028 501.781 11.1774 520.775 11.1774C539.752 11.1774 555.178 26.6202 555.178 45.5799C555.178 64.6092 539.735 80.0868 520.775 80.0868Z" fill="#183E98"/>
<path d="M520.74 20.8923C511.443 20.8923 503.87 28.4658 503.87 37.7628C503.87 46.7116 519.173 68.9618 519.835 69.9019C520.27 70.5287 521.21 70.5287 521.646 69.9019C522.29 68.9618 537.611 46.7116 537.611 37.7628C537.611 28.4483 530.037 20.8923 520.74 20.8923ZM520.74 67.3078C517.415 62.3459 506.064 44.8487 506.064 37.7628C506.064 29.6671 512.645 23.086 520.74 23.086C528.836 23.086 535.417 29.6671 535.417 37.7628C535.417 44.8487 524.066 62.3285 520.74 67.3078Z" fill="#183E98"/>
<path d="M520.74 29.4927C515.97 29.4927 512.087 33.3751 512.087 38.1455C512.087 42.9159 515.97 46.8158 520.74 46.8158C525.511 46.8158 529.411 42.9333 529.411 38.1455C529.411 33.3751 525.511 29.4927 520.74 29.4927Z" fill="#F07824"/>
<path d="M178.874 401.844C179.484 401.844 179.971 401.357 179.971 400.747C179.971 400.138 179.484 399.65 178.874 399.65H170.1C169.49 399.65 169.003 400.138 169.003 400.747C169.003 401.357 169.49 401.844 170.1 401.844H178.874Z" fill="#183E98"/>
<path d="M301.825 401.844C302.434 401.844 302.922 401.357 302.922 400.747C302.922 400.138 302.434 399.65 301.825 399.65H293.05C292.441 399.65 291.953 400.138 291.953 400.747C291.953 401.357 292.441 401.844 293.05 401.844H301.825Z" fill="#183E98"/>
<path d="M284.258 401.844C284.868 401.844 285.355 401.357 285.355 400.747C285.355 400.138 284.868 399.65 284.258 399.65H275.483C274.874 399.65 274.387 400.138 274.387 400.747C274.387 401.357 274.874 401.844 275.483 401.844H284.258Z" fill="#183E98"/>
<path d="M231.575 401.844C232.184 401.844 232.672 401.357 232.672 400.747C232.672 400.138 232.184 399.65 231.575 399.65H222.8C222.191 399.65 221.703 400.138 221.703 400.747C221.703 401.357 222.191 401.844 222.8 401.844H231.575Z" fill="#183E98"/>
<path d="M249.125 401.844C249.734 401.844 250.221 401.357 250.221 400.747C250.221 400.138 249.734 399.65 249.125 399.65H240.35C239.74 399.65 239.253 400.138 239.253 400.747C239.253 401.357 239.74 401.844 240.35 401.844H249.125Z" fill="#183E98"/>
<path d="M161.308 399.65H152.533C151.924 399.65 151.436 400.138 151.436 400.747C151.436 401.357 151.924 401.844 152.533 401.844H161.308C161.917 401.844 162.404 401.357 162.404 400.747C162.404 400.138 161.917 399.65 161.308 399.65Z" fill="#183E98"/>
<path d="M266.691 399.65H257.917C257.307 399.65 256.82 400.138 256.82 400.747C256.82 401.357 257.307 401.844 257.917 401.844H266.691C267.301 401.844 267.788 401.357 267.788 400.747C267.788 400.138 267.301 399.65 266.691 399.65Z" fill="#183E98"/>
<path d="M214.008 401.844C214.618 401.844 215.105 401.357 215.105 400.747C215.105 400.138 214.618 399.65 214.008 399.65H205.233C204.624 399.65 204.137 400.138 204.137 400.747C204.137 401.357 204.624 401.844 205.233 401.844H214.008Z" fill="#183E98"/>
<path d="M372.075 401.844C372.684 401.844 373.172 401.357 373.172 400.747C373.172 400.138 372.684 399.65 372.075 399.65H363.3C362.691 399.65 362.203 400.138 362.203 400.747C362.203 401.357 362.691 401.844 363.3 401.844H372.075Z" fill="#183E98"/>
<path d="M442.325 401.844C442.934 401.844 443.422 401.357 443.422 400.747C443.422 400.138 442.934 399.65 442.325 399.65H433.55C432.941 399.65 432.453 400.138 432.453 400.747C432.453 401.357 432.941 401.844 433.55 401.844H442.325Z" fill="#183E98"/>
<path d="M20.8076 401.844C21.417 401.844 21.9044 401.357 21.9044 400.747C21.9044 400.138 21.417 399.65 20.8076 399.65H12.0329C11.4235 399.65 10.936 400.138 10.936 400.747C10.936 401.357 11.4235 401.844 12.0329 401.844H20.8076Z" fill="#183E98"/>
<path d="M424.776 401.844C425.385 401.844 425.872 401.357 425.872 400.747C425.872 400.138 425.385 399.65 424.776 399.65H416.001C415.392 399.65 414.904 400.138 414.904 400.747C414.904 401.357 415.392 401.844 416.001 401.844H424.776Z" fill="#183E98"/>
<path d="M126.191 399.65H117.417C116.807 399.65 116.32 400.138 116.32 400.747C116.32 401.357 116.807 401.844 117.417 401.844H126.191C126.801 401.844 127.288 401.357 127.288 400.747C127.288 400.138 126.801 399.65 126.191 399.65Z" fill="#183E98"/>
<path d="M319.392 401.844C320.001 401.844 320.489 401.357 320.489 400.747C320.489 400.138 320.001 399.65 319.392 399.65H310.6C309.99 399.65 309.503 400.138 309.503 400.747C309.503 401.357 309.99 401.844 310.6 401.844H319.392Z" fill="#183E98"/>
<path d="M143.758 401.844C144.368 401.844 144.855 401.357 144.855 400.747C144.855 400.138 144.368 399.65 143.758 399.65H134.983C134.374 399.65 133.887 400.138 133.887 400.747C133.887 401.357 134.374 401.844 134.983 401.844H143.758Z" fill="#183E98"/>
<path d="M380.867 401.844H389.642C390.251 401.844 390.739 401.357 390.739 400.747C390.739 400.138 390.251 399.65 389.642 399.65H380.867C380.258 399.65 379.77 400.138 379.77 400.747C379.77 401.357 380.258 401.844 380.867 401.844Z" fill="#183E98"/>
<path d="M407.209 401.844C407.818 401.844 408.306 401.357 408.306 400.747C408.306 400.138 407.818 399.65 407.209 399.65H398.434C397.825 399.65 397.337 400.138 397.337 400.747C397.337 401.357 397.825 401.844 398.434 401.844H407.209Z" fill="#183E98"/>
<path d="M196.441 401.844C197.051 401.844 197.538 401.357 197.538 400.747C197.538 400.138 197.051 399.65 196.441 399.65H187.667C187.057 399.65 186.57 400.138 186.57 400.747C186.57 401.357 187.057 401.844 187.667 401.844H196.441Z" fill="#183E98"/>
<path d="M55.9413 401.844C56.5506 401.844 57.0381 401.357 57.0381 400.747C57.0381 400.138 56.5506 399.65 55.9413 399.65H47.1666C46.5572 399.65 46.0697 400.138 46.0697 400.747C46.0697 401.357 46.5572 401.844 47.1666 401.844H55.9413Z" fill="#183E98"/>
<path d="M38.3744 401.844C38.9837 401.844 39.4712 401.357 39.4712 400.747C39.4712 400.138 38.9837 399.65 38.3744 399.65H29.5996C28.9903 399.65 28.5028 400.138 28.5028 400.747C28.5028 401.357 28.9903 401.844 29.5996 401.844H38.3744Z" fill="#183E98"/>
<path d="M108.624 401.844C109.234 401.844 109.721 401.357 109.721 400.747C109.721 400.138 109.234 399.65 108.624 399.65H99.8498C99.2404 399.65 98.7529 400.138 98.7529 400.747C98.7529 401.357 99.2404 401.844 99.8498 401.844H108.624Z" fill="#183E98"/>
<path d="M130.109 304.504H113.256C112.646 304.504 112.159 304.991 112.159 305.6C112.159 306.21 112.646 306.697 113.256 306.697H130.109C130.718 306.697 131.205 306.21 131.205 305.6C131.205 304.991 130.701 304.504 130.109 304.504Z" fill="#183E98"/>
<path d="M43.5627 2.17627C51.9544 2.17627 59.3189 8.14796 61.1121 16.4004C61.2688 17.149 62.1741 17.5494 62.8531 17.0446C65.691 14.8857 69.2775 13.7018 72.951 13.7018C82.2132 13.7018 89.7518 21.2926 89.7518 30.6071C89.7518 31.199 90.2219 31.6865 90.7964 31.7039C99.31 32.0521 106.1 38.459 106.936 46.9204C106.988 47.4949 107.475 47.9128 108.032 47.9128C108.067 47.9128 108.102 47.9128 108.137 47.9128C108.746 47.8605 109.182 47.3208 109.129 46.7115C108.207 37.4841 101.051 30.433 91.9281 29.5799C91.1446 14.9553 74.9706 6.80738 62.8531 14.3808C60.3112 5.95428 52.4418 0 43.5627 0C31.0796 0 21.3647 11.3514 23.7847 23.9216C10.7097 22.7377 -0.537271 33.7235 0.0198544 46.3807L0.0372656 46.8333C0.0372656 47.4427 0.524748 47.9302 1.1341 47.9302C1.74346 47.9302 2.23094 47.4427 2.23094 46.8333L2.19612 45.7713C2.19612 34.89 11.0753 26.0456 21.9915 26.0456C23.1928 26.0456 24.1329 26.1327 24.9686 26.3242C25.7347 26.5331 26.5007 25.7845 26.2744 24.9662C25.8391 23.3819 25.5954 21.7105 25.5954 20.1262C25.6128 10.2198 33.6737 2.17627 43.5627 2.17627Z" fill="#183E98"/>
<path d="M174.644 90.8463C180.615 90.8463 185.873 95.1117 187.144 100.979C187.301 101.745 188.224 102.111 188.885 101.623C196.528 95.8256 208.036 101.205 208.036 111.268C208.036 111.86 208.507 112.348 209.081 112.365C215.14 112.609 219.98 117.17 220.572 123.194C220.624 123.769 221.111 124.187 221.669 124.187C221.703 124.187 221.738 124.187 221.773 124.187C222.382 124.134 222.818 123.595 222.765 122.985C222.086 116.195 216.881 110.99 210.195 110.259C209.447 99.7254 197.886 93.7015 188.885 98.9942C186.883 92.9181 181.12 88.6526 174.661 88.6526C166.391 88.6526 159.671 95.3729 159.671 103.625C159.671 104.426 159.741 105.244 159.88 106.08C150.496 105.54 142.592 112.992 142.592 122.341L142.609 123.107C142.609 123.717 143.097 124.204 143.706 124.204C144.315 124.204 144.803 123.717 144.803 123.107L144.785 122.341C144.785 114.576 151.123 108.256 158.922 108.256C159.776 108.256 160.437 108.326 161.029 108.448C161.795 108.639 162.561 107.891 162.335 107.09C160.019 98.7331 166.339 90.8463 174.644 90.8463Z" fill="#183E98"/>
<path d="M702.05 93.5449C702.468 93.9627 703.164 93.9801 703.599 93.5449C704.035 93.1096 704.035 92.4132 703.599 91.9954C697.802 86.1978 690.089 83.0117 681.871 83.0117C673.654 83.0117 665.941 86.1978 660.144 91.9954C659.708 92.4306 659.708 93.127 660.144 93.5449C660.579 93.9627 661.275 93.9801 661.693 93.5449C667.073 88.1651 674.246 85.2054 681.871 85.2054C689.497 85.2054 696.67 88.1651 702.05 93.5449Z" fill="#183E98"/>
<path d="M693.449 102.146C693.884 102.581 694.581 102.581 694.999 102.146C695.434 101.71 695.434 101.014 694.999 100.596C687.756 93.3534 675.952 93.3534 668.727 100.596C668.291 101.031 668.291 101.728 668.727 102.146C669.162 102.581 669.841 102.581 670.276 102.146C676.666 95.756 687.06 95.756 693.449 102.146Z" fill="#183E98"/>
<path d="M689.044 111.582C689.044 107.63 685.823 104.409 681.871 104.409C677.919 104.409 674.698 107.63 674.698 111.582C674.698 115.534 677.919 118.755 681.871 118.755C685.823 118.755 689.044 115.534 689.044 111.582Z" fill="#F07824"/>
<path d="M380.658 484.507H420.719C421.328 484.507 421.816 484.02 421.816 483.411C421.816 482.801 421.328 482.314 420.719 482.314H380.658C380.049 482.314 379.561 482.801 379.561 483.411C379.561 484.02 380.049 484.507 380.658 484.507Z" fill="#183E98"/>
<path d="M259.971 451.811C259.971 452.42 260.458 452.908 261.068 452.908H301.129C301.738 452.908 302.225 452.42 302.225 451.811C302.225 451.202 301.738 450.714 301.129 450.714H261.068C260.458 450.714 259.971 451.202 259.971 451.811Z" fill="#183E98"/>
<path d="M156.903 495.615C156.903 496.225 157.39 496.712 158 496.712H199.175C199.784 496.712 200.271 496.225 200.271 495.615C200.271 495.006 199.784 494.519 199.175 494.519H158.017C157.408 494.519 156.903 495.006 156.903 495.615Z" fill="#183E98"/>
<path d="M65.2383 460.969C65.2383 461.578 65.7258 462.066 66.3351 462.066H107.284C107.893 462.066 108.381 461.578 108.381 460.969C108.381 460.36 107.893 459.872 107.284 459.872H66.3351C65.7432 459.872 65.2383 460.36 65.2383 460.969Z" fill="#183E98"/>
<path fill-rule="evenodd" clip-rule="evenodd" d="M424.341 175L328.914 264H328.914L233.488 353H223L318.427 264L413.852 175H424.341ZM371.902 175H382.39L286.963 264H276.475L371.902 175ZM392.877 175H403.365L307.939 264H297.451L392.877 175ZM275.438 353H264.951L360.377 264H370.865L275.438 353ZM254.463 353H243.976L339.402 264H349.89L254.463 353Z" fill="#183E98"/>
<path fill-rule="evenodd" clip-rule="evenodd" d="M193.266 197.993C197.758 197.993 203.314 197.993 208.04 197.993C211.944 197.993 214.138 200.058 214.799 200.704L217.477 203.325C215.964 203.325 214.451 203.326 212.939 203.326L204.597 211.494C202.672 213.379 200.327 214.33 197.604 214.33H192.363C196.109 210.662 199.855 206.994 203.6 203.325L201.433 203.325C199.976 203.325 198.314 202.939 196.535 201.196L193.266 197.993V197.993Z" fill="#183E98"/>
<path fill-rule="evenodd" clip-rule="evenodd" d="M175.707 193L193.366 210.291L190.254 213.339L169.482 193H175.707ZM185.045 193L198.035 205.719L194.922 208.767L178.82 193H185.045V193ZM166.369 193L188.153 214.33H186.025C183.302 214.33 180.957 213.379 179.031 211.494L160.144 193H166.369V193Z" fill="#F07824"/>
<path d="M221.37 226.408H224.105L224.721 222.498H214.543L213.902 226.408H216.835L214.937 238.594H219.423L221.37 226.408V226.408ZM166.06 222.498H161.55L160.018 232.194C159.731 235.224 157.156 235.129 157.675 232.658L159.282 222.498H154.772L153.097 233.14C151.853 240.057 163.014 241.456 164.354 233.258L166.06 222.498V222.498ZM164.459 238.594H175.648L176.289 234.637H171.335L178.507 222.498H167.811L167.244 226.19H171.803L164.459 238.594ZM176.758 238.594H181.268L182.082 233.285H182.92C186.937 233.285 189.623 230.751 189.623 227.035C189.623 224.043 187.775 222.498 184.226 222.498H179.272L176.758 238.594ZM182.673 229.521L183.265 225.853H183.684C184.813 225.853 185.245 226.637 185.123 227.75C185.018 228.707 184.304 229.521 183.141 229.521H182.673ZM197.194 222.209C188.903 222.209 186.561 238.908 195.243 238.908C204.213 238.908 205.485 222.209 197.194 222.209ZM196.925 226.172C199.12 226.172 198.042 234.999 195.708 234.999C193.374 234.999 194.73 226.172 196.925 226.172ZM202.416 237.701C203.673 238.498 205.078 238.884 206.606 238.884C210.229 238.884 212.693 236.567 212.693 233.189C212.693 229.863 208.971 228.526 208.997 227.107C209.026 225.46 211.696 226.025 212.743 227.083L213.383 223.077C212.127 222.474 210.993 222.209 209.81 222.209C206.581 222.209 204.215 224.477 204.215 227.494C204.215 230.761 207.912 232.148 207.912 233.526C207.912 234.275 207.247 234.757 206.187 234.757C205.177 234.757 204.166 234.299 203.106 233.358L202.416 237.701V237.701Z" fill="#183E98"/>
</svg>
