<svg width="227" height="37" viewBox="0 0 227 37" fill="none" xmlns="http://www.w3.org/2000/svg">
<path d="M221.285 15.5495H225.949L227 8.86395H209.644L208.551 15.5495H213.552L210.316 36.3905H217.965L221.285 15.5495ZM126.97 8.86395H119.279L116.667 25.4449C116.178 30.6262 111.787 30.4638 112.672 26.2388L115.413 8.86395H107.723L104.865 27.0636C102.744 38.8924 121.776 41.2851 124.061 27.2654L126.97 8.86395ZM124.241 36.3905H143.32L144.413 29.6224H135.965L148.195 8.86395H129.956L128.989 15.1781H136.764L124.241 36.3905ZM145.213 36.3905H152.904L154.29 27.3112H155.719C162.569 27.3112 167.15 22.978 167.15 16.6225C167.15 11.5051 163.998 8.86395 157.947 8.86395H149.5L145.213 36.3905ZM155.299 20.8733L156.308 14.6004H157.022C158.948 14.6004 159.684 15.941 159.476 17.8454C159.297 19.4819 158.081 20.8733 156.098 20.8733H155.299ZM180.06 8.36868C165.921 8.36868 161.928 36.927 176.734 36.927C192.028 36.927 194.199 8.36868 180.06 8.36868ZM179.601 15.1457C183.344 15.1457 181.505 30.2414 177.526 30.2414C173.547 30.2414 175.858 15.1457 179.601 15.1457ZM188.965 34.8635C191.109 36.2255 193.504 36.8858 196.11 36.8858C202.287 36.8858 206.49 32.9238 206.49 27.1462C206.49 21.4583 200.143 19.1718 200.186 16.7463C200.237 13.9286 204.79 14.8952 206.574 16.7051L207.667 9.85431C205.523 8.82256 203.59 8.36868 201.573 8.36868C196.068 8.36868 192.033 12.248 192.033 17.4066C192.033 22.9939 198.337 25.3669 198.337 27.7239C198.337 29.0033 197.202 29.8288 195.395 29.8288C193.672 29.8288 191.949 29.0447 190.142 27.4351L188.965 34.8635Z" fill="#183E98"/>
<path fill-rule="evenodd" clip-rule="evenodd" d="M26.1756 0.442566L55.8769 29.6097L50.6421 34.7503L15.7054 0.442566H26.1756ZM41.881 0.442566L63.7294 21.8977L58.4947 27.0386L31.4107 0.442566H41.881ZM10.4704 0.442566L47.1093 36.4225H43.5299C38.9494 36.4225 35.006 34.8185 31.767 31.6379L0 0.442566H10.4704Z" fill="#F07824"/>
<path fill-rule="evenodd" clip-rule="evenodd" d="M55.7087 8.86533C63.2638 8.86533 72.6084 8.86533 80.5573 8.86533C87.1241 8.86533 90.8148 12.3483 91.926 13.4378L96.4297 17.8596C93.885 17.8596 91.3407 17.8603 88.7969 17.8603L74.7672 31.6381C71.5294 34.8181 67.5844 36.4226 63.0046 36.4226H54.1894C60.4897 30.2349 66.7906 24.048 73.0906 17.8599L69.4445 17.8596C66.9942 17.8596 64.1993 17.2075 61.2078 14.2684L55.7087 8.86533Z" fill="#183E98"/>
</svg>
